<svg width="158" height="20" viewBox="0 0 158 20" fill="none" xmlns="http://www.w3.org/2000/svg">
<g clip-path="url(#clip0)">
<path d="M44.6667 5.33333C44.6667 8.5 46.6667 9.83333 49.3333 10.8333L52.1667 11.8333C54 12.5 54.8333 13.1667 54.8333 14.6667C54.8333 16.3333 53.3333 17.1667 51 17.1667C48.6667 17.1667 46.5 16.3333 44.8333 15V18.3333C46.1667 19.3333 48.5 20 51 20C55 20 58 18 58 14.5C58 11.6667 56.6667 10 53.5 8.83333L50.3333 7.66667C48.6667 7.16667 47.8333 6.5 47.8333 5.16667C47.8333 3.66667 49.3333 2.83333 51.3333 2.83333C53.6667 2.83333 55.3333 3.66667 57 4.83333V1.5C55.5 0.5 53.3333 0 51.1667 0C47.6667 0 44.6667 1.83333 44.6667 5.33333ZM144.333 5.33333C144.333 8.5 146.333 9.83333 149 10.8333L151.833 11.8333C153.667 12.5 154.5 13.1667 154.5 14.6667C154.5 16.3333 153 17.1667 150.667 17.1667C148.333 17.1667 146.167 16.3333 144.5 15V18.3333C145.833 19.3333 148.167 20 150.667 20C154.667 20 157.667 18 157.667 14.5C157.667 11.6667 156.333 10 153.333 8.83333L150.167 7.66667C148.5 7.16667 147.667 6.5 147.667 5.16667C147.667 3.66667 149.167 2.83333 151.167 2.83333C153.333 2.83333 155 3.66667 156.667 5V1.66667C155.167 0.5 153.167 0 151 0C147.333 0 144.333 1.83333 144.333 5.33333ZM124.333 5.33333C124.333 8.5 126.333 9.83333 129 10.8333L131.667 11.8333C133.5 12.5 134.333 13.1667 134.333 14.6667C134.333 16.3333 132.833 17.1667 130.5 17.1667C128.167 17.1667 126 16.3333 124.333 15V18.3333C125.667 19.3333 128 20 130.5 20C134.5 20 137.5 18 137.5 14.5C137.5 11.6667 136.167 10 133 8.83333L130 7.83333C128.333 7.33333 127.5 6.66667 127.5 5.33333C127.5 3.83333 129 3 131 3C133.167 2.83333 135 3.66667 136.667 5V1.66667C135.167 0.5 133.167 0 130.833 0C127.333 0 124.333 1.83333 124.333 5.33333ZM104.833 0V20H116.667V17H108V10.8333H115.667V7.83333H108V3H116.667V0H104.833ZM0 0V20H7.5C11.6667 20 14.1667 18 14.1667 14.3333C14.1667 12.1667 12.8333 10.3333 11 9.66667C12.5 9.16667 13.5 7.5 13.5 5.5C13.5 2 11 0 6.83333 0H0ZM3.16667 3H6.83333C9.16667 3 10.3333 3.83333 10.3333 5.66667C10.3333 7.5 9.16667 8.33333 6.83333 8.33333H3.16667V3ZM3.16667 11.1667H7.33333C9.5 11.1667 10.8333 12.3333 10.8333 14.1667C10.8333 16 9.66667 17.1667 7.33333 17.1667H3.16667V11.1667ZM66.5 20H69.8333V0H66.5V20ZM33.6667 0V11.5C33.6667 15.3333 32 17 29.1667 17C26.1667 17 24.6667 15.1667 24.6667 11.5V0H21.3333V11.8333C21.3333 17.1667 24.5 20 29.1667 20C33.8333 20 37 17.1667 37 11.8333V0H33.6667ZM92.8333 0.333333V12.6667L79.3333 0V19.6667H82.5V7L96 20V0.333333H92.8333Z" fill="black"/>
</g>
<defs>
<clipPath id="clip0">
<rect width="157.667" height="20" fill="white"/>
</clipPath>
</defs>
</svg>
