<svg width="159" height="22" viewBox="0 0 159 22" fill="none" xmlns="http://www.w3.org/2000/svg">
<path d="M16.2467 13.974H17.2281L16.8105 19.1111C16.7687 19.6958 16.727 20.4058 16.727 21.0532H0V20.1761L1.37825 19.7167C1.85855 19.5705 2.21355 19.299 2.21355 18.7352V4.13828C2.21355 3.59533 1.85855 3.34474 1.37825 3.1568L0 2.69738V1.82031H16.4555C16.4555 2.48856 16.4555 3.11503 16.4972 3.74151L16.8314 7.66744H15.8499L13.8452 4.07563C13.3231 3.13592 12.7175 2.90621 11.5063 2.90621H6.9539V10.2986H9.64776C10.7754 10.2986 11.2139 9.77658 11.5272 9.12922L12.7384 6.7486H13.6154V14.9346H12.7384L11.5063 12.5331C11.1722 11.8857 10.7545 11.3637 9.62687 11.3637H6.9539V19.9882H11.1931C12.5504 19.9882 13.4275 19.6332 14.1375 18.2131L16.2467 13.974Z" fill="white"/>
<path d="M33.3912 13.974H34.3727L33.9551 19.1111C33.9133 19.6749 33.8715 20.4058 33.8715 21.0532H18.7734V20.1761L19.9011 19.7167C20.3187 19.5705 20.444 19.299 20.444 18.8396V4.03387C20.444 3.61621 20.2979 3.34474 19.9011 3.1568L18.7734 2.69738V1.82031H27.3979V2.69738L26.0197 3.1568C25.5394 3.30298 25.1844 3.5118 25.1844 4.03387V19.9464H28.3585C29.7159 19.9464 30.593 19.5914 31.303 18.1714L33.3912 13.974Z" fill="white"/>
<path d="M35.563 10.8211C35.6466 9.31751 36.0433 7.91838 36.6907 6.66543H45.0437V10.8211H35.563ZM45.0228 12.0531V16.2088H36.6698C36.0224 14.9558 35.6048 13.5567 35.5421 12.0531H45.0228ZM37.4633 5.43335C39.1966 3.05274 41.8905 1.38213 45.0437 1.25684V5.43335H37.4633ZM45.0228 17.4408V21.6174C41.8905 21.4712 39.1757 19.8423 37.4425 17.4408H45.0228ZM46.2758 5.43335V1.25684C49.4082 1.40301 52.1229 3.03186 53.8562 5.43335H46.2758ZM46.2758 10.8211V6.66543H54.6288C55.2762 7.91838 55.6938 9.31751 55.7565 10.8211H46.2758ZM55.7565 12.0531C55.673 13.5567 55.2762 14.9558 54.6288 16.2088H46.2758V12.0531H55.7565ZM53.8353 17.4408C52.102 19.8215 49.4082 21.4921 46.2549 21.6174V17.4408H53.8353Z" fill="#00568C"/>
<path d="M80.6903 1.82069V2.69776L79.5209 3.11541C79.0406 3.26159 78.9153 3.59571 78.9153 4.03424V18.84C78.9153 19.2576 79.0615 19.5291 79.4582 19.7171L80.5859 20.1765V21.0535H72.6087V20.1765L73.7155 19.7171C74.1332 19.5709 74.2585 19.2994 74.2585 18.84V4.24307H74.2167L68.119 21.0535H67.0957L60.476 4.72337H60.4342V16.6473C60.4342 18.4641 60.6221 19.4456 62.3554 19.8632L63.6083 20.1556V21.0327H56.6544V20.1556L57.4897 19.9259C58.9306 19.5082 59.1186 18.485 59.1186 16.6682V4.15954C59.1186 3.74188 58.9724 3.366 58.2415 3.09452L57.3227 2.71864V1.82069H64.736C64.8195 2.57246 65.0284 3.366 65.2581 3.90895L69.2675 14.2458H69.3093L72.7967 4.57719C73.0264 3.88806 73.3396 2.69776 73.3396 1.7998L80.6903 1.82069Z" fill="white"/>
<path d="M94.264 2.69738V1.82031H100.174V2.69738L99.4638 2.92709C98.5867 3.19856 98.2943 3.72063 98.2943 5.64183V14.684C98.2943 19.6749 94.7652 21.3873 91.069 21.3873C86.8298 21.3873 83.5303 19.842 83.5303 14.8093V4.03387C83.5303 3.61621 83.3842 3.34474 82.9874 3.1568L81.8597 2.69738V1.82031H89.9204V2.69738L88.8136 3.1568C88.396 3.30298 88.2707 3.57445 88.2707 4.03387V14.7884C88.2707 18.0878 89.8369 19.487 92.5934 19.487C95.6214 19.487 96.9578 17.6284 96.9578 14.4125V5.64183C96.9578 3.72063 96.6864 3.26121 95.517 2.98974L94.264 2.69738Z" fill="white"/>
<path d="M112.849 2.69738V1.82031H119.866V2.69738L119.031 2.92709C117.465 3.38651 117.402 4.30534 117.402 6.10124V21.0323H115.167L104.392 4.55593H104.35V16.6469C104.35 18.4637 104.58 19.3408 106.313 19.7793L107.524 20.0717V21.0532H100.487V20.0717L101.364 19.842C102.805 19.4243 102.993 18.4637 102.993 16.6678V4.09651C102.951 3.67886 102.701 3.21945 101.636 2.92709L100.8 2.69738V1.82031H108.485C108.631 2.15443 109.007 2.73915 109.32 3.21945L115.982 13.5146V6.14301C115.982 4.32622 115.752 3.42827 114.019 3.01062L112.849 2.69738Z" fill="white"/>
<path d="M127.968 1.82031C135.027 1.82031 138.41 5.99683 138.41 11.4472C138.41 16.8975 135.006 21.0741 127.968 21.0741H120.513V20.197L121.641 19.7376C122.059 19.5914 122.184 19.3199 122.184 18.8605V4.03387C122.184 3.61621 122.038 3.34474 121.641 3.1568L120.513 2.69738V1.82031H127.968ZM126.924 20.009H128.177C132.813 20.009 133.544 16.0831 133.544 11.4472C133.544 6.81125 132.813 2.88532 128.177 2.88532H126.924V20.009Z" fill="white"/>
<path d="M149.478 1.44531C154.093 1.44531 158.979 4.80741 158.979 11.4481C158.979 18.0679 154.093 21.4508 149.478 21.4508C144.863 21.4508 140.018 18.0887 140.018 11.4481C140.018 4.80741 144.883 1.44531 149.478 1.44531ZM149.478 20.3441C152.652 20.3441 154.051 17.3161 154.051 11.4481C154.051 5.58006 152.652 2.53121 149.478 2.53121C146.324 2.53121 144.925 5.55918 144.925 11.4272C144.946 17.3161 146.345 20.3441 149.478 20.3441Z" fill="white"/>
</svg>
