<svg width="107" height="15" viewBox="0 0 107 15" fill="none" xmlns="http://www.w3.org/2000/svg">
<path fill-rule="evenodd" clip-rule="evenodd" d="M7.31081 2.6985C6.88581 2.6135 6.31181 2.55 5.95081 2.55C4.97331 2.55 4.90982 2.975 4.90982 3.655V4.8655H7.35331L7.14031 7.373H4.90982V15H1.85033V7.373H0.277832V4.8655H1.85033V3.3145C1.85033 1.19 2.84883 0 5.35582 0C6.22682 0 6.86431 0.127501 7.69281 0.297501L7.31081 2.6985Z" fill="#2196F3"/>
<path fill-rule="evenodd" clip-rule="evenodd" d="M41.1503 1.77549C40.4717 2.07694 39.7415 2.27996 38.9755 2.37162C39.7574 1.90284 40.3579 1.1609 40.6403 0.276842C39.9094 0.711179 39.0979 1.02555 38.236 1.19596C37.5452 0.460176 36.5602 0 35.4719 0C33.3808 0 31.6853 1.69551 31.6853 3.7866C31.6853 4.08314 31.7191 4.37228 31.7837 4.64974C28.6363 4.49225 25.8464 2.98437 23.9786 0.693339C23.6525 1.25256 23.4661 1.90284 23.4661 2.5968C23.4661 3.91027 24.1336 5.06932 25.1506 5.74851C24.5292 5.72882 23.946 5.55841 23.4347 5.2748V5.32217C23.4347 7.15733 24.7408 8.68736 26.472 9.03618C26.1546 9.12231 25.8199 9.16906 25.4748 9.16906C25.2305 9.16906 24.9931 9.14507 24.7618 9.10077C25.2435 10.605 26.6424 11.7 28.2992 11.7308C27.0036 12.7459 25.3708 13.3519 23.5965 13.3519C23.2902 13.3519 22.9887 13.334 22.6928 13.2983C24.3686 14.3725 26.3588 15 28.4973 15C35.4621 15 39.2708 9.22996 39.2708 4.22648C39.2708 4.06222 39.2677 3.89858 39.2597 3.73678C40.0005 3.20155 40.6427 2.53466 41.1503 1.77549Z" fill="#2196F3"/>
<path fill-rule="evenodd" clip-rule="evenodd" d="M59.5902 1.64541C59.5902 2.54243 58.9072 3.26837 57.8391 3.26837C56.8126 3.26837 56.1296 2.54243 56.1507 1.64541C56.1296 0.704798 56.8126 0 57.8596 0C58.9072 0 59.5697 0.704798 59.5902 1.64541ZM56.2366 14.999V4.55048H59.4839V14.9983H56.2366V14.999Z" fill="#2196F3"/>
<path fill-rule="evenodd" clip-rule="evenodd" d="M62.0865 7.88463C62.0865 6.58137 62.0435 5.47034 62.0006 4.55152H64.8211L64.9711 5.98292H65.0352C65.4625 5.3204 66.5306 4.31703 68.2613 4.31703C70.3975 4.31703 71.9999 5.72729 71.9999 8.80278V15H68.7527V9.20967C68.7527 7.86283 68.2831 6.94467 67.1079 6.94467C66.2103 6.94467 65.6765 7.56426 65.4632 8.16205C65.3773 8.37607 65.335 8.67463 65.335 8.97452V15H62.0878V7.88463H62.0865Z" fill="#2196F3"/>
<path d="M106.998 1.1625C106.998 1.354 106.954 1.54256 106.87 1.7114C106.786 1.88025 106.664 2.02417 106.515 2.13036L96.9995 9L87.4839 2.13036C87.29 1.99207 87.1427 1.79054 87.0639 1.55559C86.9851 1.32065 86.979 1.06476 87.0465 0.82581C87.114 0.586857 87.2515 0.377529 87.4386 0.228803C87.6257 0.0800763 87.8525 -0.000146971 88.0855 4.02747e-06H105.915C106.515 4.02747e-06 107 0.521432 107 1.1625H106.998ZM106.998 4.22679V13.2143C106.998 13.6879 106.823 14.1421 106.51 14.477C106.198 14.8119 105.774 15 105.332 15H88.6671C88.2252 15 87.8013 14.8119 87.4888 14.477C87.1762 14.1421 87.0007 13.6879 87.0007 13.2143V4.22679C87.0007 3.86965 87.3723 3.65715 87.6489 3.85536L96.9995 10.5357L106.35 3.85715C106.413 3.81225 106.486 3.7864 106.561 3.78234C106.636 3.77829 106.711 3.79617 106.777 3.8341C106.844 3.87203 106.9 3.92859 106.939 3.99774C106.977 4.06689 106.998 4.14605 106.998 4.22679Z" fill="#2196F3"/>
</svg>
