<svg width="232" height="31" viewBox="0 0 232 31" fill="none" xmlns="http://www.w3.org/2000/svg">
<path fill-rule="evenodd" clip-rule="evenodd" d="M15 27.9365C21.9036 27.9365 27.5 22.3401 27.5 15.4365C27.5 8.53296 21.9036 2.93652 15 2.93652C8.09644 2.93652 2.5 8.53296 2.5 15.4365C2.5 22.3401 8.09644 27.9365 15 27.9365ZM17.0752 10.899C17.4061 10.899 17.9323 10.9572 18.3219 11.0352L18.6721 8.83423C17.9126 8.6784 17.3282 8.56152 16.5298 8.56152C14.2317 8.56152 13.3165 9.65236 13.3165 11.5998V13.0216H11.875V15.3201H13.3165V22.3115H16.121V15.3201H18.1656L18.3609 13.0216H16.121V11.9119C16.121 11.2886 16.1792 10.899 17.0752 10.899Z" fill="white"/>
<path fill-rule="evenodd" clip-rule="evenodd" d="M55 27.9365C61.9036 27.9365 67.5 22.3401 67.5 15.4365C67.5 8.53296 61.9036 2.93652 55 2.93652C48.0964 2.93652 42.5 8.53296 42.5 15.4365C42.5 22.3401 48.0964 27.9365 55 27.9365ZM58.0307 9.33174C57.2398 9.29565 57.0026 9.288 55 9.288C52.9974 9.288 52.7602 9.29565 51.9694 9.33174C51.2381 9.36508 50.841 9.48726 50.5767 9.58997C50.2266 9.72603 49.9768 9.88855 49.7144 10.151C49.4519 10.4134 49.2894 10.6633 49.1533 11.0134C49.0506 11.2776 48.9284 11.6748 48.8951 12.406C48.859 13.1968 48.8514 13.4341 48.8514 15.4366C48.8514 17.4392 48.859 17.6764 48.8951 18.4673C48.9284 19.1985 49.0506 19.5956 49.1533 19.8599C49.2894 20.21 49.4519 20.4598 49.7144 20.7223C49.9768 20.9847 50.2266 21.1472 50.5767 21.2833C50.841 21.386 51.2381 21.5082 51.9694 21.5415C52.7601 21.5776 52.9973 21.5853 55 21.5853C57.0027 21.5853 57.2399 21.5776 58.0307 21.5415C58.7619 21.5082 59.159 21.386 59.4233 21.2833C59.7734 21.1472 60.0232 20.9847 60.2857 20.7223C60.5481 20.4598 60.7106 20.21 60.8467 19.8599C60.9494 19.5956 61.0716 19.1985 61.1049 18.4673C61.141 17.6764 61.1487 17.4392 61.1487 15.4366C61.1487 13.4341 61.141 13.1968 61.1049 12.406C61.0716 11.6748 60.9494 11.2776 60.8467 11.0134C60.7106 10.6633 60.5481 10.4134 60.2857 10.151C60.0232 9.88855 59.7734 9.72603 59.4233 9.58997C59.159 9.48726 58.7619 9.36508 58.0307 9.33174ZM51.9078 7.98179C52.7077 7.94529 52.9631 7.93666 55 7.93666C57.0369 7.93666 57.2923 7.94529 58.0923 7.98179C58.8905 8.0182 59.4357 8.145 59.9128 8.33038C60.406 8.52205 60.8242 8.7785 61.2412 9.19544C61.6582 9.61242 61.9146 10.0307 62.1063 10.5239C62.2917 11.0009 62.4185 11.5461 62.4549 12.3444C62.4914 13.1444 62.5 13.3998 62.5 15.4366C62.5 17.4735 62.4914 17.7289 62.4549 18.5289C62.4185 19.3271 62.2917 19.8723 62.1063 20.3494C61.9146 20.8426 61.6582 21.2608 61.2412 21.6778C60.8242 22.0948 60.406 22.3512 59.9128 22.5429C59.4357 22.7283 58.8905 22.8551 58.0923 22.8915C57.2923 22.928 57.0369 22.9366 55 22.9366C52.9631 22.9366 52.7077 22.928 51.9078 22.8915C51.1095 22.8551 50.5643 22.7283 50.0872 22.5429C49.594 22.3512 49.1758 22.0948 48.7588 21.6778C48.3419 21.2608 48.0854 20.8426 47.8938 20.3494C47.7084 19.8723 47.5816 19.3271 47.5451 18.5289C47.5086 17.7289 47.5 17.4735 47.5 15.4366C47.5 13.3998 47.5086 13.1444 47.5451 12.3444C47.5816 11.5461 47.7084 11.0009 47.8938 10.5239C48.0854 10.0307 48.3419 9.61242 48.7588 9.19544C49.1758 8.7785 49.594 8.52205 50.0872 8.33038C50.5643 8.145 51.1095 8.0182 51.9078 7.98179ZM55.0035 11.5887C52.8764 11.5887 51.1521 13.313 51.1521 15.4401C51.1521 17.5671 52.8764 19.2914 55.0035 19.2914C57.1305 19.2914 58.8548 17.5671 58.8548 15.4401C58.8548 13.313 57.1305 11.5887 55.0035 11.5887ZM55.0035 17.9401C53.6228 17.9401 52.5035 16.8208 52.5035 15.4401C52.5035 14.0594 53.6228 12.9401 55.0035 12.9401C56.3842 12.9401 57.5035 14.0594 57.5035 15.4401C57.5035 16.8208 56.3842 17.9401 55.0035 17.9401ZM59.0067 12.3343C59.5038 12.3343 59.9067 11.9313 59.9067 11.4343C59.9067 10.9372 59.5038 10.5343 59.0067 10.5343C58.5097 10.5343 58.1067 10.9372 58.1067 11.4343C58.1067 11.9313 58.5097 12.3343 59.0067 12.3343Z" fill="white"/>
<path fill-rule="evenodd" clip-rule="evenodd" d="M95 27.9365C101.904 27.9365 107.5 22.3401 107.5 15.4365C107.5 8.53296 101.904 2.93652 95 2.93652C88.0964 2.93652 82.5 8.53296 82.5 15.4365C82.5 22.3401 88.0964 27.9365 95 27.9365ZM100.733 11.1141C101.355 11.0396 101.949 10.8747 102.5 10.6297C102.088 11.2466 101.566 11.7886 100.964 12.2236C100.97 12.3551 100.973 12.488 100.973 12.6215C100.973 16.6878 97.8773 21.377 92.2172 21.377C90.4793 21.377 88.8619 20.867 87.5 19.994C87.7405 20.023 87.9855 20.0375 88.2344 20.0375C89.6764 20.0375 91.0033 19.5451 92.0562 18.7201C90.7098 18.6951 89.5729 17.8052 89.1814 16.5828C89.3694 16.6188 89.5624 16.6383 89.7608 16.6383C90.0413 16.6383 90.3133 16.6003 90.5713 16.5303C89.1644 16.2468 88.103 15.0034 88.103 13.512V13.4735C88.5184 13.704 88.9924 13.8425 89.4974 13.8585C88.6709 13.3065 88.1285 12.3646 88.1285 11.2971C88.1285 10.7332 88.2799 10.2047 88.5449 9.75023C90.0628 11.6121 92.3302 12.8375 94.888 12.9655C94.8355 12.74 94.808 12.505 94.808 12.2641C94.808 10.5647 96.1859 9.18677 97.8853 9.18677C98.7697 9.18677 99.5702 9.56074 100.132 10.1587C100.832 10.0202 101.492 9.76473 102.086 9.41175C101.856 10.1302 101.368 10.7332 100.733 11.1141Z" fill="white"/>
<path fill-rule="evenodd" clip-rule="evenodd" d="M147.5 15.4365C147.5 22.3401 141.904 27.9365 135 27.9365C128.096 27.9365 122.5 22.3401 122.5 15.4365C122.5 8.53296 128.096 2.93652 135 2.93652C141.904 2.93652 147.5 8.53296 147.5 15.4365ZM131.734 9.36407C131.734 10.1423 131.142 10.772 130.215 10.772C129.325 10.772 128.732 10.1423 128.75 9.36407C128.732 8.54807 129.325 7.93665 130.233 7.93665C131.142 7.93665 131.716 8.54807 131.734 9.36407ZM128.825 20.948V11.8843H131.642V20.948H128.825ZM133.825 11.8856C133.863 12.6827 133.9 13.6466 133.9 14.7772H133.901V20.9499H136.718V15.7227C136.718 15.4625 136.755 15.2035 136.829 15.0178C137.014 14.4992 137.477 13.9617 138.256 13.9617C139.275 13.9617 139.683 14.7583 139.683 15.9267V20.9499H142.5V15.5737C142.5 12.9056 141.11 11.6822 139.257 11.6822C137.755 11.6822 136.829 12.5526 136.458 13.1274H136.402L136.272 11.8856H133.825Z" fill="white"/>
<rect x="163" y="2.48828" width="25" height="25" rx="12.5" fill="white"/>
<path d="M182.684 11.1792C182.598 10.8621 182.431 10.573 182.199 10.3408C181.967 10.1086 181.678 9.94145 181.36 9.85609C180.193 9.54004 175.5 9.54004 175.5 9.54004C175.5 9.54004 170.807 9.54004 169.64 9.85609C169.322 9.94145 169.033 10.1086 168.801 10.3408C168.569 10.573 168.402 10.8621 168.316 11.1792C168.098 12.3702 167.993 13.579 168 14.7898C167.993 16.0005 168.098 17.2093 168.316 18.4003C168.402 18.7174 168.569 19.0065 168.801 19.2387C169.033 19.4709 169.322 19.6381 169.64 19.7234C170.807 20.0395 175.5 20.0395 175.5 20.0395C175.5 20.0395 180.193 20.0395 181.36 19.7234C181.678 19.6381 181.967 19.4709 182.199 19.2387C182.431 19.0065 182.598 18.7174 182.684 18.4003C182.902 17.2093 183.007 16.0005 183 14.7898C183.007 13.579 182.902 12.3702 182.684 11.1792ZM174 17.0396V12.5399L177.895 14.7898L174 17.0396Z" fill="#0C0C0C"/>
<rect x="204" y="2.48828" width="25" height="25" rx="12.5" fill="white"/>
<path d="M221.113 22.2539H224C224 14.1164 217.269 7.48828 209 7.48828V10.3195C215.675 10.3195 221.113 15.6727 221.113 22.2539ZM216.012 22.2539H218.9C218.9 16.882 214.456 12.5039 209 12.5039V15.3352C210.875 15.3352 212.628 16.057 213.959 17.3602C214.611 17.9978 215.128 18.7593 215.48 19.5997C215.833 20.4401 216.014 21.3425 216.012 22.2539ZM210.997 22.2352C212.094 22.2352 212.994 21.3633 212.994 20.2758C212.994 19.1977 212.094 18.3164 210.997 18.3164C209.891 18.3164 209 19.1977 209 20.2758C209 21.3633 209.891 22.2352 210.997 22.2352Z" fill="#0C0C0C"/>
</svg>
