<svg width="165" height="30" viewBox="0 0 165 30" fill="none" xmlns="http://www.w3.org/2000/svg">
<g clip-path="url(#clip0_1704_8122)">
<path d="M16.0013 21.4688V15.567H17.9824L18.2788 13.2664H16.0007V11.7982C16.0007 11.1334 16.1863 10.6789 17.1386 10.6789H18.357V8.62125C18.1461 8.59312 17.4233 8.53125 16.5823 8.53125C14.8256 8.53125 13.6236 9.60281 13.6236 11.5716V13.2681H11.6379V15.5687H13.6236V21.4688H15.999H16.0013Z" fill="#000A0A"/>
</g>
<rect x="0.5" y="0.5" width="29" height="29" stroke="#000A0A"/>
<g clip-path="url(#clip1_1704_8122)">
<path d="M66.7499 10.8133C66.2442 11.0367 65.7081 11.1836 65.1592 11.2492C65.7382 10.9035 66.1713 10.3585 66.3776 9.71644C65.8339 10.0403 65.2382 10.2676 64.6169 10.3881C64.3576 10.1122 64.0445 9.89252 63.6968 9.74255C63.3492 9.59259 62.9745 9.51554 62.5959 9.51619C62.1783 9.51617 61.7662 9.61055 61.3903 9.79227C61.0144 9.974 60.6844 10.2384 60.425 10.5656C60.1657 10.8928 59.9837 11.2745 59.8927 11.682C59.8016 12.0894 59.8039 12.5123 59.8993 12.9187C57.5986 12.8006 55.5568 11.6981 54.1899 10.0219C53.9448 10.4453 53.8157 10.9259 53.8158 11.4152C53.8158 12.3771 54.3052 13.2231 55.0477 13.7214C54.6081 13.7063 54.1784 13.5875 53.7933 13.3749V13.4087C53.7933 14.7531 54.7496 15.8724 56.0163 16.1256C55.7834 16.1902 55.5382 16.2234 55.2868 16.2234C55.1079 16.2234 54.9346 16.2066 54.7648 16.1751C54.9421 16.7252 55.2867 17.2062 55.7506 17.5511C56.2144 17.896 56.7744 18.0874 57.3523 18.0988C56.371 18.868 55.1599 19.2854 53.9131 19.284C53.6893 19.284 53.4688 19.2711 53.2522 19.2457C54.5191 20.0595 55.9933 20.4916 57.4991 20.4906C62.5931 20.4906 65.3797 16.2679 65.3797 12.6082C65.3797 12.4884 65.3769 12.3686 65.3713 12.2499C65.9113 11.859 66.3809 11.3724 66.7522 10.8156L66.7499 10.8133Z" fill="#000A0A"/>
</g>
<rect x="45.5" y="0.5" width="29" height="29" stroke="#000A0A"/>
<g clip-path="url(#clip2_1704_8122)">
<path d="M110.625 17.9531V12.8906C110.625 12.8906 105.506 16.4625 105.009 16.6481C104.519 16.4715 99.375 12.8906 99.375 12.8906V17.9531C99.375 18.6562 99.5246 18.7969 100.219 18.7969H109.781C110.493 18.7969 110.625 18.6731 110.625 17.9531ZM110.617 11.8978C110.617 11.3859 110.467 11.2031 109.781 11.2031H100.219C99.5128 11.2031 99.375 11.4225 99.375 11.9344L99.3834 12.0131C99.3834 12.0131 104.466 15.5119 105.008 15.7031C105.582 15.4809 110.625 11.9344 110.625 11.9344L110.617 11.8978Z" fill="#000A0A"/>
</g>
<rect x="90.5" y="0.5" width="29" height="29" stroke="#000A0A"/>
<g clip-path="url(#clip3_1704_8122)">
<path d="M150 7.99294C145.963 7.99294 142.688 10.5872 142.688 13.7833C142.688 15.6677 143.828 17.3439 145.59 18.4014C146.552 19.2818 146.457 20.6964 145.125 22.0071C146.741 22.0071 149.313 21.0519 149.885 19.5658H150C154.036 19.5658 157.312 16.9755 157.312 13.7805C157.312 10.5855 154.036 7.99238 150 7.99238V7.99294ZM146.088 15.774C145.677 15.774 145.272 15.6671 145.07 15.5558L145.235 14.8841C145.451 14.9966 145.786 15.108 146.135 15.108C146.506 15.108 146.703 14.9533 146.703 14.7188C146.703 14.4949 146.533 14.3672 146.101 14.2125C145.505 14.0044 145.115 13.6742 145.115 13.1516C145.115 12.5385 145.627 12.0694 146.474 12.0694C146.879 12.0694 147.177 12.1549 147.391 12.2505L147.209 12.9064C146.975 12.7931 146.718 12.7348 146.458 12.7359C146.106 12.7359 145.935 12.8957 145.935 13.0824C145.935 13.3131 146.137 13.4143 146.602 13.5887C147.236 13.8249 147.535 14.1568 147.535 14.6631C147.536 15.2649 147.072 15.7768 146.086 15.7768L146.088 15.774ZM151.18 15.7206L151.127 14.3481C151.107 13.8559 151.096 13.3635 151.095 12.8709H151.079C150.963 13.3397 150.829 13.8041 150.68 14.2631L150.242 15.6638H149.607L149.224 14.2727C149.095 13.8102 148.987 13.3423 148.899 12.8704H148.887C148.867 13.3558 148.851 13.911 148.824 14.3582L148.76 15.7223H148.009L148.238 12.1301H149.32L149.674 13.3283C149.787 13.7445 149.898 14.1923 149.978 14.6136H149.993C150.097 14.1811 150.211 13.7511 150.335 13.3238L150.719 12.1313H151.78L151.977 15.7234H151.181L151.18 15.7206ZM153.481 15.7768C153.07 15.7768 152.665 15.6699 152.463 15.5574L152.627 14.8858C152.847 14.9983 153.184 15.1097 153.53 15.1097C153.903 15.1097 154.101 14.955 154.101 14.7204C154.101 14.4977 153.929 14.37 153.499 14.2142C152.9 14.0061 152.512 13.677 152.512 13.1544C152.512 12.5413 153.023 12.0722 153.871 12.0722C154.276 12.0722 154.574 12.1583 154.787 12.2539L154.606 12.9098C154.372 12.7964 154.115 12.7381 153.854 12.7393C153.503 12.7393 153.331 12.8991 153.331 13.0858C153.331 13.3153 153.534 13.4166 153.998 13.5921C154.632 13.8283 154.931 14.1579 154.931 14.6642C154.932 15.2661 154.468 15.7779 153.482 15.7779L153.481 15.7768Z" fill="#000A0A"/>
</g>
<rect x="135.5" y="0.5" width="29" height="29" stroke="#000A0A"/>
<defs>
<clipPath id="clip0_1704_8122">
<rect width="18" height="18" fill="white" transform="translate(6 6)"/>
</clipPath>
<clipPath id="clip1_1704_8122">
<rect width="18" height="18" fill="white" transform="translate(51 6)"/>
</clipPath>
<clipPath id="clip2_1704_8122">
<rect width="18" height="18" fill="white" transform="translate(96 6)"/>
</clipPath>
<clipPath id="clip3_1704_8122">
<rect width="18" height="18" fill="white" transform="translate(141 6)"/>
</clipPath>
</defs>
</svg>
