<svg width="112" height="71" viewBox="0 0 112 71" fill="none" xmlns="http://www.w3.org/2000/svg">
<path fill-rule="evenodd" clip-rule="evenodd" d="M15 28.3682C21.9036 28.3682 27.5 22.7717 27.5 15.8682C27.5 8.96461 21.9036 3.36816 15 3.36816C8.09644 3.36816 2.5 8.96461 2.5 15.8682C2.5 22.7717 8.09644 28.3682 15 28.3682ZM17.0752 11.3307C17.4061 11.3307 17.9323 11.3889 18.3219 11.4668L18.6721 9.26587C17.9126 9.11004 17.3282 8.99316 16.5298 8.99316C14.2317 8.99316 13.3165 10.084 13.3165 12.0315V13.4532H11.875V15.7518H13.3165V22.7432H16.121V15.7518H18.1656L18.3609 13.4532H16.121V12.3436C16.121 11.7202 16.1792 11.3307 17.0752 11.3307Z" fill="white"/>
<path fill-rule="evenodd" clip-rule="evenodd" d="M55 28.3682C61.9036 28.3682 67.5 22.7717 67.5 15.8682C67.5 8.96461 61.9036 3.36816 55 3.36816C48.0964 3.36816 42.5 8.96461 42.5 15.8682C42.5 22.7717 48.0964 28.3682 55 28.3682ZM58.0307 9.76338C57.2398 9.72729 57.0026 9.71964 55 9.71964C52.9974 9.71964 52.7602 9.72729 51.9694 9.76338C51.2381 9.79672 50.841 9.9189 50.5767 10.0216C50.2266 10.1577 49.9768 10.3202 49.7144 10.5827C49.4519 10.8451 49.2894 11.0949 49.1533 11.445C49.0506 11.7093 48.9284 12.1064 48.8951 12.8376C48.859 13.6285 48.8514 13.8657 48.8514 15.8683C48.8514 17.8708 48.859 18.1081 48.8951 18.8989C48.9284 19.6301 49.0506 20.0273 49.1533 20.2915C49.2894 20.6416 49.4519 20.8915 49.7144 21.1539C49.9768 21.4164 50.2266 21.5789 50.5767 21.7149C50.841 21.8176 51.2381 21.9398 51.9694 21.9732C52.7601 22.0093 52.9973 22.0169 55 22.0169C57.0027 22.0169 57.2399 22.0093 58.0307 21.9732C58.7619 21.9398 59.159 21.8176 59.4233 21.7149C59.7734 21.5789 60.0232 21.4164 60.2857 21.1539C60.5481 20.8915 60.7106 20.6416 60.8467 20.2915C60.9494 20.0273 61.0716 19.6301 61.1049 18.8989C61.141 18.1081 61.1487 17.8708 61.1487 15.8683C61.1487 13.8657 61.141 13.6285 61.1049 12.8376C61.0716 12.1064 60.9494 11.7093 60.8467 11.445C60.7106 11.0949 60.5481 10.8451 60.2857 10.5826C60.0232 10.3202 59.7734 10.1577 59.4233 10.0216C59.159 9.9189 58.7619 9.79672 58.0307 9.76338ZM51.9078 8.41343C52.7077 8.37693 52.9631 8.3683 55 8.3683C57.0369 8.3683 57.2923 8.37693 58.0923 8.41343C58.8905 8.44984 59.4357 8.57664 59.9128 8.76202C60.406 8.95369 60.8242 9.21014 61.2412 9.62708C61.6582 10.0441 61.9146 10.4623 62.1063 10.9555C62.2917 11.4326 62.4185 11.9778 62.4549 12.776C62.4914 13.576 62.5 13.8314 62.5 15.8683C62.5 17.9051 62.4914 18.1606 62.4549 18.9605C62.4185 19.7588 62.2917 20.304 62.1063 20.781C61.9146 21.2742 61.6582 21.6925 61.2412 22.1095C60.8242 22.5264 60.406 22.7829 59.9128 22.9745C59.4357 23.1599 58.8905 23.2867 58.0923 23.3231C57.2923 23.3596 57.0369 23.3682 55 23.3682C52.9631 23.3682 52.7077 23.3596 51.9078 23.3231C51.1095 23.2867 50.5643 23.1599 50.0872 22.9745C49.594 22.7829 49.1758 22.5264 48.7588 22.1095C48.3419 21.6925 48.0854 21.2742 47.8938 20.781C47.7084 20.304 47.5816 19.7588 47.5451 18.9605C47.5086 18.1606 47.5 17.9051 47.5 15.8683C47.5 13.8314 47.5086 13.576 47.5451 12.776C47.5816 11.9778 47.7084 11.4326 47.8938 10.9555C48.0854 10.4623 48.3419 10.0441 48.7588 9.62708C49.1758 9.21014 49.594 8.95369 50.0872 8.76202C50.5643 8.57664 51.1095 8.44984 51.9078 8.41343ZM55.0035 12.0204C52.8764 12.0204 51.1521 13.7447 51.1521 15.8717C51.1521 17.9988 52.8764 19.723 55.0035 19.723C57.1305 19.723 58.8548 17.9988 58.8548 15.8717C58.8548 13.7447 57.1305 12.0204 55.0035 12.0204ZM55.0035 18.3717C53.6228 18.3717 52.5035 17.2524 52.5035 15.8717C52.5035 14.491 53.6228 13.3717 55.0035 13.3717C56.3842 13.3717 57.5035 14.491 57.5035 15.8717C57.5035 17.2524 56.3842 18.3717 55.0035 18.3717ZM59.0067 12.7659C59.5038 12.7659 59.9067 12.3629 59.9067 11.8659C59.9067 11.3689 59.5038 10.9659 59.0067 10.9659C58.5097 10.9659 58.1067 11.3689 58.1067 11.8659C58.1067 12.3629 58.5097 12.7659 59.0067 12.7659Z" fill="white"/>
<path fill-rule="evenodd" clip-rule="evenodd" d="M95 28.3682C101.904 28.3682 107.5 22.7717 107.5 15.8682C107.5 8.96461 101.904 3.36816 95 3.36816C88.0964 3.36816 82.5 8.96461 82.5 15.8682C82.5 22.7717 88.0964 28.3682 95 28.3682ZM100.733 11.5458C101.355 11.4713 101.949 11.3063 102.5 11.0613C102.088 11.6783 101.566 12.2202 100.964 12.6552C100.97 12.7867 100.973 12.9197 100.973 13.0532C100.973 17.1194 97.8773 21.8086 92.2172 21.8086C90.4793 21.8086 88.8619 21.2986 87.5 20.4257C87.7405 20.4547 87.9855 20.4692 88.2344 20.4692C89.6764 20.4692 91.0033 19.9767 92.0562 19.1518C90.7098 19.1268 89.5729 18.2368 89.1814 17.0144C89.3694 17.0504 89.5624 17.0699 89.7608 17.0699C90.0413 17.0699 90.3133 17.0319 90.5713 16.9619C89.1644 16.6784 88.103 15.435 88.103 13.9436V13.9051C88.5184 14.1356 88.9924 14.2741 89.4974 14.2901C88.6709 13.7381 88.1285 12.7962 88.1285 11.7288C88.1285 11.1648 88.2799 10.6363 88.5449 10.1819C90.0628 12.0437 92.3302 13.2692 94.888 13.3972C94.8355 13.1717 94.808 12.9367 94.808 12.6957C94.808 10.9963 96.1859 9.61841 97.8853 9.61841C98.7697 9.61841 99.5702 9.99238 100.132 10.5903C100.832 10.4519 101.492 10.1964 102.086 9.84339C101.856 10.5618 101.368 11.1648 100.733 11.5458Z" fill="white"/>
<path fill-rule="evenodd" clip-rule="evenodd" d="M27.5 55.8682C27.5 62.7717 21.9036 68.3682 15 68.3682C8.09644 68.3682 2.5 62.7717 2.5 55.8682C2.5 48.9646 8.09644 43.3682 15 43.3682C21.9036 43.3682 27.5 48.9646 27.5 55.8682ZM11.7342 49.7957C11.7342 50.5739 11.1417 51.2037 10.2151 51.2037C9.3246 51.2037 8.73208 50.5739 8.75041 49.7957C8.73208 48.9797 9.32458 48.3683 10.2328 48.3683C11.1417 48.3683 11.7165 48.9797 11.7342 49.7957ZM8.82491 61.3796V52.3159H11.642V61.3796H8.82491ZM13.8253 52.3173C13.8626 53.1144 13.8998 54.0782 13.8998 55.2088H13.901V61.3815H16.718V56.1543C16.718 55.8942 16.7547 55.6351 16.8292 55.4495C17.0143 54.9309 17.4773 54.3934 18.2561 54.3934C19.2755 54.3934 19.6829 55.1899 19.6829 56.3583V61.3815H22.5V56.0053C22.5 53.3373 21.1098 52.1138 19.2566 52.1138C17.7552 52.1138 16.8286 52.9843 16.4579 53.559H16.4023L16.2722 52.3173H13.8253Z" fill="white"/>
<rect x="43" y="42.9199" width="25" height="25" rx="12.5" fill="white"/>
<path d="M62.6835 51.6109C62.5982 51.2938 62.431 51.0046 62.1988 50.7724C61.9666 50.5402 61.6775 50.3731 61.3604 50.2877C60.1926 49.9717 55.5 49.9717 55.5 49.9717C55.5 49.9717 50.8074 49.9717 49.6396 50.2877C49.3225 50.3731 49.0334 50.5402 48.8012 50.7724C48.569 51.0046 48.4018 51.2938 48.3165 51.6109C48.0984 52.8018 47.9926 54.0107 48.0004 55.2214C47.9926 56.4321 48.0984 57.6409 48.3165 58.8319C48.4018 59.149 48.569 59.4381 48.8012 59.6704C49.0334 59.9026 49.3225 60.0697 49.6396 60.1551C50.8074 60.4711 55.5 60.4711 55.5 60.4711C55.5 60.4711 60.1926 60.4711 61.3604 60.1551C61.6775 60.0697 61.9666 59.9026 62.1988 59.6704C62.431 59.4381 62.5982 59.149 62.6835 58.8319C62.9016 57.6409 63.0074 56.4321 62.9996 55.2214C63.0074 54.0107 62.9016 52.8018 62.6835 51.6109ZM54.0001 57.4713V52.9715L57.8945 55.2214L54.0001 57.4713Z" fill="#0C0C0C"/>
<rect x="84" y="42.9199" width="25" height="25" rx="12.5" fill="white"/>
<path d="M101.113 62.6855H104C104 54.548 97.2687 47.9199 89 47.9199V50.7512C95.675 50.7512 101.113 56.1043 101.113 62.6855ZM96.0125 62.6855H98.9C98.9 57.3137 94.4563 52.9355 89 52.9355V55.7668C90.875 55.7668 92.6281 56.4887 93.9594 57.7918C94.6105 58.4295 95.1276 59.1909 95.4802 60.0313C95.8328 60.8717 96.0138 61.7742 96.0125 62.6855ZM90.9969 62.6668C92.0938 62.6668 92.9938 61.7949 92.9938 60.7074C92.9938 59.6293 92.0938 58.748 90.9969 58.748C89.8906 58.748 89 59.6293 89 60.7074C89 61.7949 89.8906 62.6668 90.9969 62.6668Z" fill="#0C0C0C"/>
</svg>
